<?xml version="1.0" standalone="no"?>
<!DOCTYPE svg PUBLIC "-//W3C//DTD SVG 20010904//EN"
 "http://www.w3.org/TR/2001/REC-SVG-20010904/DTD/svg10.dtd">
<svg version="1.0" xmlns="http://www.w3.org/2000/svg"
 width="512.000000pt" height="512.000000pt" viewBox="0 0 512.000000 512.000000"
 preserveAspectRatio="xMidYMid meet">

<g transform="translate(0.000000,512.000000) scale(0.100000,-0.100000)"
fill="#000000" stroke="none">
<path d="M2467 4366 c-55 -20 -112 -60 -140 -98 -14 -18 -78 -127 -142 -243
-65 -115 -313 -559 -553 -985 -239 -426 -574 -1022 -744 -1325 -175 -311 -315
-573 -324 -603 -38 -131 32 -279 162 -343 l49 -24 1785 0 1785 0 46 21 c60 28
119 87 150 150 19 38 24 65 24 121 0 69 -3 78 -61 190 -114 219 -1692 3018
-1722 3053 -47 57 -123 93 -206 97 -45 2 -85 -2 -109 -11z m198 -117 c18 -12
46 -43 63 -68 51 -77 1718 -3053 1730 -3090 7 -19 12 -46 12 -61 0 -45 -47
-125 -92 -156 l-41 -29 -1767 -3 -1766 -2 -45 23 c-54 29 -99 97 -106 161 -4
36 1 57 25 108 75 158 1712 3056 1745 3090 20 21 51 42 69 47 50 16 135 6 173
-20z"/>
<path d="M2532 3294 l-22 -15 0 -644 c0 -572 2 -645 16 -659 20 -20 48 -20 68
0 14 14 16 87 16 659 l0 644 -22 15 c-12 9 -25 16 -28 16 -3 0 -16 -7 -28 -16z"/>
<path d="M2522 1618 c-8 -8 -12 -57 -12 -153 0 -151 4 -165 50 -165 46 0 50
14 50 165 0 151 -4 165 -50 165 -14 0 -31 -5 -38 -12z"/>
</g>
</svg>
