<?xml version="1.0" standalone="no"?>
<!DOCTYPE svg PUBLIC "-//W3C//DTD SVG 20010904//EN"
 "http://www.w3.org/TR/2001/REC-SVG-20010904/DTD/svg10.dtd">
<svg version="1.0" xmlns="http://www.w3.org/2000/svg"
 width="512.000000pt" height="512.000000pt" viewBox="0 0 512.000000 512.000000"
 preserveAspectRatio="xMidYMid meet">

<g transform="translate(0.000000,512.000000) scale(0.100000,-0.100000)"
fill="#000000" stroke="none">
<path d="M1200 4024 c-107 -46 -159 -174 -115 -282 11 -26 194 -215 595 -617
l580 -580 -571 -570 c-385 -385 -577 -583 -590 -610 -80 -170 102 -353 279
-280 51 22 1344 1313 1372 1371 24 48 26 121 5 172 -22 51 -1333 1366 -1390
1393 -48 22 -117 24 -165 3z"/>
<path d="M2480 4024 c-107 -46 -159 -174 -115 -282 11 -26 194 -215 595 -617
l580 -580 -571 -570 c-385 -385 -577 -583 -590 -610 -80 -170 102 -353 279
-280 51 22 1344 1313 1372 1371 24 48 26 121 5 172 -22 51 -1333 1366 -1390
1393 -48 22 -117 24 -165 3z"/>
</g>
</svg>
